<svg id="Capa_1" enable-background="new 0 0 512 512" height="512" viewBox="0 0 512 512" width="512" xmlns="http://www.w3.org/2000/svg"><g><g><g><g><g><path d="m271 167v210c0 8.28-6.72 15-15 15s-15-6.72-15-15v-210c0-8.28 6.72-15 15-15s15 6.72 15 15z" fill="#ff9822"/></g></g></g></g><path d="m271 167v210c0 8.28-6.72 15-15 15v-240c8.28 0 15 6.72 15 15z" fill="#e56705"/><g><g><g><path d="m301 407v90h-90v-90c0-24.81 20.19-45 45-45s45 20.19 45 45z" fill="#fcbf29"/></g></g></g><path d="m301 407v90h-45v-135c24.81 0 45 20.19 45 45z" fill="#ff9822"/><path d="m106 207.389 43.844 109.611 16.156 7 15-7c0-2.095-.443-4.103-1.185-5.852l-59.887-149.719c-2.279-5.695-7.794-9.429-13.928-9.429s-11.649 3.734-13.927 9.429l-59.888 149.719c-.741 1.747-1.153 3.903-1.16 5.852l15.975 6 15.156-6z" fill="#b34f03"/><path d="m406 207.389-43.844 109.611-16.156 7-15-7c0-1.828.441-4.097 1.185-5.852l59.887-149.719c2.279-5.695 7.794-9.429 13.928-9.429s11.649 3.734 13.927 9.429l59.887 149.719c.741 1.747 1.153 3.903 1.16 5.852l-15.974 6-15.156-6z" fill="#913f02"/><path d="m31.025 317c-.155 40.653 33.077 75 74.975 75 41.51 0 75-33.823 75-75-19.794 0-136.232 0-149.975 0z" fill="#fcbf29"/><path d="m480.975 317c.155 40.653-33.077 75-74.975 75-41.521 0-75-33.833-75-75z" fill="#ff9822"/><g><g><g><path d="m114.787 182h-68.787c-8.284 0-15-6.716-15-15s6.716-15 15-15h68.787c9.673 0 18.767-3.767 25.607-10.607 12.505-12.506 29.133-19.393 46.819-19.393h38.787c8.284 0 15 6.716 15 15s-6.716 15-15 15h-38.787c-9.673 0-18.767 3.767-25.607 10.607-12.505 12.506-29.133 19.393-46.819 19.393z" fill="#ff9822"/></g><path d="m397.213 182h68.787c8.284 0 15-6.716 15-15s-6.716-15-15-15h-68.787c-9.673 0-18.767-3.767-25.607-10.607-12.505-12.506-29.133-19.393-46.819-19.393h-38.787c-8.284 0-15 6.716-15 15s6.716 15 15 15h38.787c9.673 0 18.767 3.767 25.607 10.607 12.505 12.506 29.133 19.393 46.819 19.393z" fill="#e56705"/></g></g><g><g><g><g><path d="m256 90c-24.81 0-45 20.19-45 45v32c0 8.28 6.72 15 15 15h60c8.28 0 15-6.72 15-15v-32c0-24.81-20.19-45-45-45z" fill="#fcbf29"/></g></g></g></g><path d="m301 135v32c0 8.28-6.72 15-15 15h-30v-92c24.81 0 45 20.19 45 45z" fill="#ff9822"/><g><g><g><g><path d="m256 0c-24.81 0-45 20.19-45 45s20.19 45 45 45 45-20.19 45-45-20.19-45-45-45z" fill="#ff9822"/></g></g></g></g><path d="m301 45c0 24.81-20.19 45-45 45v-90c24.81 0 45 20.19 45 45z" fill="#e56705"/><g><g><g><path d="m361 497c0 8.28-6.72 15-15 15h-180c-8.28 0-15-6.72-15-15s6.72-15 15-15h180c8.28 0 15 6.72 15 15z" fill="#ff9822"/></g></g></g><path d="m361 497c0 8.28-6.72 15-15 15h-90v-30h90c8.28 0 15 6.72 15 15z" fill="#e56705"/></g></svg>