<?xml version="1.0" encoding="iso-8859-1"?>
<!-- Generator: Adobe Illustrator 19.0.0, SVG Export Plug-In . SVG Version: 6.00 Build 0)  -->
<svg version="1.1" id="Layer_1" xmlns="http://www.w3.org/2000/svg" xmlns:xlink="http://www.w3.org/1999/xlink" x="0px" y="0px"
	 viewBox="0 0 512.5 512.5" style="enable-background:new 0 0 512.5 512.5;" xml:space="preserve">
<path style="fill:#D32F2F;" d="M331.85,110.1l-35.2-4l0,0l-54.8-5.2c-8.4,0.4-18,1.6-26,2.8c-6.4,0.8-12.8,0.4-18.8,4.4
	c-5.2,0-10.4,1.6-15.2,2.8c-66.8,19.6-113.6,66-113.6,142.4c0,102.4,128,254.4,188.4,254.4s188.4-152,188.4-254.4
	C445.05,177.3,398.65,129.7,331.85,110.1z"/>
<g>
	<path style="fill:#7CB342;" d="M352.25,16.5c-22,1.6-45.6,13.2-67.2,30.8c0,0-0.4-2.8-0.4,1.2l0,0c-0.4,0-0.4-0.4-0.8-0.4
		c-10,8.4-19.2,17.2-28,28.4c-6,8-11.2,16-15.6,24.4h0.4c5.2-0.4,10.8-0.4,16-0.4c13.2,0,23.2,0.8,39.2,2.4
		c11.6,1.6,23.2,4,34.4,7.2C350.65,78.1,357.85,43.7,352.25,16.5z"/>
	<path style="fill:#7CB342;" d="M284.65,48.5l0.4-0.8c-7.2-17.6-16.8-32.8-28.8-43.2c-11.6,10.4-21.6,25.6-28.8,42.8
		c0,0,0-2.8,0,1.2c-6.8,16-10.8,35.6-11.6,56l2-1.6c7.6-1.2,15.2-1.6,23.2-2h-0.4c4.4-8.4,9.6-16.4,15.6-24.4
		c5.6-7.6,11.6-14.4,18-20.4l9.2-7.6H284.65z"/>
	<path style="fill:#7CB342;" d="M227.85,47.3c-21.6-17.6-44.4-28.8-66.4-30.4c-4.8,23.6-0.8,52,15.2,80c0,3.2,1.2,7.6,2.8,11.6h5.2
		h12.4c6-4,15.6-4.4,19.6-5.6l0,0c4-20.8,4.4-38.4,11.2-54.4l0,0V47.3z"/>
</g>
<path d="M181.85,114.5c-1.2,0-2.8-0.8-3.2-2c-0.8-1.2-1.6-2.8-2.4-4c-2-3.2-3.6-6.4-5.2-9.6c-14.4-28.8-19.6-58-14.4-83.2
	c0.4-2,2.4-3.2,4.4-3.2c22.8,1.6,47.6,12.8,69.6,30.8c1.6,1.6,2,4,0.4,5.6s-4,2-5.6,0.4c-19.6-16-41.2-26-61.6-28.4
	c-3.6,22.4,1.6,49.2,14.4,74.4c1.6,3.2,3.2,6,4.8,9.2c0.8,1.2,1.6,2.4,2.4,3.6c1.2,2,0.4,4.4-1.2,5.6
	C183.05,114.1,182.65,114.5,181.85,114.5z"/>
<path d="M215.85,106.9L215.85,106.9c-2.4,0-4-2-4-4c0.8-20.4,4.8-40.4,12-58v-0.4c7.2-18,17.6-33.2,29.6-43.6c1.6-1.2,3.6-1.2,5.2,0
	c13.2,11.6,21.6,23.6,28.4,40.8c0.8,2,0,4.4-2.4,5.2c-2,0.8-4.4,0-5.2-2.4c-6-14.4-13.2-25.2-23.6-35.2c-10,9.6-18.8,22.8-24.8,38.4
	l0,0l0,0c-6.8,16.8-10.8,35.6-11.2,55.2C219.85,105.3,218.249,106.9,215.85,106.9z"/>
<path d="M331.05,114.5c-0.8,0-1.6,0-2-0.4c-2-1.2-2.4-3.6-1.2-5.6c18-29.2,25.6-60.8,21.6-87.2c-19.6,2.4-41.6,12.8-61.6,28.8
	l-0.4,0.4l-0.4,0.4c-8.8,7.2-18.4,16-27.6,28c-5.6,7.6-10.8,15.6-15.2,23.6c-1.2,2-3.6,2.8-5.6,1.6c-2-1.2-2.8-3.6-1.6-5.6
	c4.4-8.4,10-16.8,16-24.8c9.2-12.4,19.6-21.2,28-28.8c0-0.8,0.4-1.6,0.4-1.6c0.8-1.6,2.4-2.4,4.4-2c21.6-16.8,45.2-26.8,66.4-28.4
	c2,0,4,1.2,4.4,3.2c6,28.8-2,64-22,96.4C333.45,113.7,332.25,114.5,331.05,114.5z"/>
<path d="M256.25,512.5c-64.4,0-192-157.2-192-258.4c0-72.4,42.4-126,116.4-147.6c5.2-1.6,10.4-2.8,15.6-4c6-1.2,12.4-2.4,19.2-3.6
	c8-1.2,16.4-2,25.2-2.4c4.8-0.4,10-0.4,15.6-0.4c13.2,0,26.4,0.8,38.4,2.4c12.8,1.6,25.2,4.4,36.8,7.6
	c74,21.6,116.8,75.2,116.8,147.6C448.65,355.3,321.05,512.5,256.25,512.5z M256.25,104.5c-5.6,0-10.8,0-15.2,0.4
	c-8.4,0.4-16.8,1.2-24.4,2.4c-6.4,0.8-12.8,2-18.8,3.2c-4.8,1.2-10,2.4-15.2,4c-71.2,20.8-110.4,70.4-110.4,139.6
	c0,45.2,26.4,106.4,70.4,163.2c40.4,52,86,87.2,113.6,87.2c27.2,0,72.8-35.2,113.6-87.2c44-56.8,70.4-118,70.4-163.2
	c0-69.6-39.2-119.2-110.8-140l0,0c-11.2-3.2-23.2-5.6-35.6-7.2C281.85,105.3,269.45,104.5,256.25,104.5z"/>
<path d="M256.65,320.5c-2.4,0-4-1.6-4-4v-16c0-2.4,1.6-4,4-4c2.4,0,4,1.6,4,4v16C260.65,318.9,259.05,320.5,256.65,320.5z"/>
<path d="M200.65,320.5c-2.4,0-4-1.6-4-4v-16c0-2.4,1.6-4,4-4s4,1.6,4,4v16C204.65,318.9,203.05,320.5,200.65,320.5z"/>
<path d="M312.65,320.5c-2.4,0-4-1.6-4-4v-16c0-2.4,1.6-4,4-4s4,1.6,4,4v16C316.65,318.9,315.05,320.5,312.65,320.5z"/>
<path d="M144.65,320.5c-2.4,0-4-1.6-4-4v-16c0-2.4,1.6-4,4-4s4,1.6,4,4v16C148.65,318.9,147.05,320.5,144.65,320.5z"/>
<path d="M88.65,320.5c-2.4,0-4-1.6-4-4v-16c0-2.4,1.6-4,4-4s4,1.6,4,4v16C92.65,318.9,91.05,320.5,88.65,320.5z"/>
<path d="M368.65,320.5c-2.4,0-4-1.6-4-4v-16c0-2.4,1.6-4,4-4s4,1.6,4,4v16C372.65,318.9,371.05,320.5,368.65,320.5z"/>
<path d="M424.65,320.5c-2.4,0-4-1.6-4-4v-16c0-2.4,1.6-4,4-4s4,1.6,4,4v16C428.65,318.9,427.05,320.5,424.65,320.5z"/>
<path d="M256.65,240.5c-2.4,0-4-1.6-4-4v-16c0-2.4,1.6-4,4-4c2.4,0,4,1.6,4,4v16C260.65,238.9,259.05,240.5,256.65,240.5z"/>
<path d="M200.65,240.5c-2.4,0-4-1.6-4-4v-16c0-2.4,1.6-4,4-4s4,1.6,4,4v16C204.65,238.9,203.05,240.5,200.65,240.5z"/>
<path d="M312.65,240.5c-2.4,0-4-1.6-4-4v-16c0-2.4,1.6-4,4-4s4,1.6,4,4v16C316.65,238.9,315.05,240.5,312.65,240.5z"/>
<path d="M144.65,240.5c-2.4,0-4-1.6-4-4v-16c0-2.4,1.6-4,4-4s4,1.6,4,4v16C148.65,238.9,147.05,240.5,144.65,240.5z"/>
<path d="M88.65,240.5c-2.4,0-4-1.6-4-4v-16c0-2.4,1.6-4,4-4s4,1.6,4,4v16C92.65,238.9,91.05,240.5,88.65,240.5z"/>
<path d="M368.65,240.5c-2.4,0-4-1.6-4-4v-16c0-2.4,1.6-4,4-4s4,1.6,4,4v16C372.65,238.9,371.05,240.5,368.65,240.5z"/>
<path d="M424.65,240.5c-2.4,0-4-1.6-4-4v-16c0-2.4,1.6-4,4-4s4,1.6,4,4v16C428.65,238.9,427.05,240.5,424.65,240.5z"/>
<path d="M284.65,280.5c-2.4,0-4-1.6-4-4v-16c0-2.4,1.6-4,4-4s4,1.6,4,4v16C288.65,278.9,287.05,280.5,284.65,280.5z"/>
<path d="M228.65,280.5c-2.4,0-4-1.6-4-4v-16c0-2.4,1.6-4,4-4s4,1.6,4,4v16C232.65,278.9,231.05,280.5,228.65,280.5z"/>
<path d="M340.65,280.5c-2.4,0-4-1.6-4-4v-16c0-2.4,1.6-4,4-4s4,1.6,4,4v16C344.65,278.9,343.05,280.5,340.65,280.5z"/>
<path d="M172.65,280.5c-2.4,0-4-1.6-4-4v-16c0-2.4,1.6-4,4-4s4,1.6,4,4v16C176.65,278.9,175.05,280.5,172.65,280.5z"/>
<path d="M116.65,280.5c-2.4,0-4-1.6-4-4v-16c0-2.4,1.6-4,4-4s4,1.6,4,4v16C120.65,278.9,119.05,280.5,116.65,280.5z"/>
<path d="M396.65,280.5c-2.4,0-4-1.6-4-4v-16c0-2.4,1.6-4,4-4s4,1.6,4,4v16C400.65,278.9,399.05,280.5,396.65,280.5z"/>
<path d="M284.65,360.5c-2.4,0-4-1.6-4-4v-16c0-2.4,1.6-4,4-4s4,1.6,4,4v16C288.65,358.9,287.05,360.5,284.65,360.5z"/>
<path d="M228.65,360.5c-2.4,0-4-1.6-4-4v-16c0-2.4,1.6-4,4-4s4,1.6,4,4v16C232.65,358.9,231.05,360.5,228.65,360.5z"/>
<path d="M340.65,360.5c-2.4,0-4-1.6-4-4v-16c0-2.4,1.6-4,4-4s4,1.6,4,4v16C344.65,358.9,343.05,360.5,340.65,360.5z"/>
<path d="M172.65,360.5c-2.4,0-4-1.6-4-4v-16c0-2.4,1.6-4,4-4s4,1.6,4,4v16C176.65,358.9,175.05,360.5,172.65,360.5z"/>
<path d="M116.65,360.5c-2.4,0-4-1.6-4-4v-16c0-2.4,1.6-4,4-4s4,1.6,4,4v16C120.65,358.9,119.05,360.5,116.65,360.5z"/>
<path d="M396.65,360.5c-2.4,0-4-1.6-4-4v-16c0-2.4,1.6-4,4-4s4,1.6,4,4v16C400.65,358.9,399.05,360.5,396.65,360.5z"/>
<path d="M256.65,160.5c-2.4,0-4-1.6-4-4v-16c0-2.4,1.6-4,4-4c2.4,0,4,1.6,4,4v16C260.65,158.9,259.05,160.5,256.65,160.5z"/>
<path d="M200.65,160.5c-2.4,0-4-1.6-4-4v-16c0-2.4,1.6-4,4-4s4,1.6,4,4v16C204.65,158.9,203.05,160.5,200.65,160.5z"/>
<path d="M312.65,160.5c-2.4,0-4-1.6-4-4v-16c0-2.4,1.6-4,4-4s4,1.6,4,4v16C316.65,158.9,315.05,160.5,312.65,160.5z"/>
<path d="M144.65,160.5c-2.4,0-4-1.6-4-4v-16c0-2.4,1.6-4,4-4s4,1.6,4,4v16C148.65,158.9,147.05,160.5,144.65,160.5z"/>
<path d="M368.65,160.5c-2.4,0-4-1.6-4-4v-16c0-2.4,1.6-4,4-4s4,1.6,4,4v16C372.65,158.9,371.05,160.5,368.65,160.5z"/>
<path d="M284.65,200.5c-2.4,0-4-1.6-4-4v-16c0-2.4,1.6-4,4-4s4,1.6,4,4v16C288.65,198.9,287.05,200.5,284.65,200.5z"/>
<path d="M228.65,200.5c-2.4,0-4-1.6-4-4v-16c0-2.4,1.6-4,4-4s4,1.6,4,4v16C232.65,198.9,231.05,200.5,228.65,200.5z"/>
<path d="M340.65,200.5c-2.4,0-4-1.6-4-4v-16c0-2.4,1.6-4,4-4s4,1.6,4,4v16C344.65,198.9,343.05,200.5,340.65,200.5z"/>
<path d="M172.65,200.5c-2.4,0-4-1.6-4-4v-16c0-2.4,1.6-4,4-4s4,1.6,4,4v16C176.65,198.9,175.05,200.5,172.65,200.5z"/>
<path d="M116.65,200.5c-2.4,0-4-1.6-4-4v-16c0-2.4,1.6-4,4-4s4,1.6,4,4v16C120.65,198.9,119.05,200.5,116.65,200.5z"/>
<path d="M396.65,200.5c-2.4,0-4-1.6-4-4v-16c0-2.4,1.6-4,4-4s4,1.6,4,4v16C400.65,198.9,399.05,200.5,396.65,200.5z"/>
<path d="M256.65,400.5c-2.4,0-4-1.6-4-4v-16c0-2.4,1.6-4,4-4c2.4,0,4,1.6,4,4v16C260.65,398.9,259.05,400.5,256.65,400.5z"/>
<path d="M200.65,400.5c-2.4,0-4-1.6-4-4v-16c0-2.4,1.6-4,4-4s4,1.6,4,4v16C204.65,398.9,203.05,400.5,200.65,400.5z"/>
<path d="M312.65,400.5c-2.4,0-4-1.6-4-4v-16c0-2.4,1.6-4,4-4s4,1.6,4,4v16C316.65,398.9,315.05,400.5,312.65,400.5z"/>
<path d="M144.65,400.5c-2.4,0-4-1.6-4-4v-16c0-2.4,1.6-4,4-4s4,1.6,4,4v16C148.65,398.9,147.05,400.5,144.65,400.5z"/>
<path d="M368.65,400.5c-2.4,0-4-1.6-4-4v-16c0-2.4,1.6-4,4-4s4,1.6,4,4v16C372.65,398.9,371.05,400.5,368.65,400.5z"/>
<path d="M256.65,480.5c-2.4,0-4-1.6-4-4v-16c0-2.4,1.6-4,4-4c2.4,0,4,1.6,4,4v16C260.65,478.9,259.05,480.5,256.65,480.5z"/>
<path d="M200.65,480.5c-2.4,0-4-1.6-4-4v-16c0-2.4,1.6-4,4-4s4,1.6,4,4v16C204.65,478.9,203.05,480.5,200.65,480.5z"/>
<path d="M312.65,480.5c-2.4,0-4-1.6-4-4v-16c0-2.4,1.6-4,4-4s4,1.6,4,4v16C316.65,478.9,315.05,480.5,312.65,480.5z"/>
<path d="M284.65,440.5c-2.4,0-4-1.6-4-4v-16c0-2.4,1.6-4,4-4s4,1.6,4,4v16C288.65,438.9,287.05,440.5,284.65,440.5z"/>
<path d="M228.65,440.5c-2.4,0-4-1.6-4-4v-16c0-2.4,1.6-4,4-4s4,1.6,4,4v16C232.65,438.9,231.05,440.5,228.65,440.5z"/>
<path d="M340.65,440.5c-2.4,0-4-1.6-4-4v-16c0-2.4,1.6-4,4-4s4,1.6,4,4v16C344.65,438.9,343.05,440.5,340.65,440.5z"/>
<path d="M172.65,440.5c-2.4,0-4-1.6-4-4v-16c0-2.4,1.6-4,4-4s4,1.6,4,4v16C176.65,438.9,175.05,440.5,172.65,440.5z"/>
<g>
</g>
<g>
</g>
<g>
</g>
<g>
</g>
<g>
</g>
<g>
</g>
<g>
</g>
<g>
</g>
<g>
</g>
<g>
</g>
<g>
</g>
<g>
</g>
<g>
</g>
<g>
</g>
<g>
</g>
</svg>
